<mxfile host="app.diagrams.net" modified="2023-12-06T07:52:59.518Z" agent="Mozilla/5.0 (Windows NT 10.0; Win64; x64) AppleWebKit/537.36 (KHTML, like Gecko) Chrome/119.0.0.0 Safari/537.36" etag="wz79Eet_Ucz1PXEObdI_" version="22.1.5" type="github">
  <diagram name="Page-1" id="74e2e168-ea6b-b213-b513-2b3c1d86103e">
    <mxGraphModel dx="1434" dy="786" grid="1" gridSize="10" guides="1" tooltips="1" connect="1" arrows="1" fold="1" page="1" pageScale="1" pageWidth="1100" pageHeight="850" background="none" math="0" shadow="0">
      <root>
        <mxCell id="0" />
        <mxCell id="1" parent="0" />
        <mxCell id="bOPhfKpZzqqKe66vDT6X-47" value="假设A和B中保存的数据是一致的，A和B间通过网络互访，且A和B在整个处理过程中无故障。&lt;br&gt;在A和B经过上述流程修改数据后，会出现三种结果：&lt;br&gt;1）如果A发送的修改数据消息未到达B，则A和B的中的数据都未修改，是一致的；&lt;br&gt;2）如果A发送的修改数据消息到达B，但是B发送的返回消息未到达A，则B的数据比A新，是不一致的；&lt;br&gt;3）如果A发送的修改数据消息达到B，同样B发送的返校消息达到B，则A和B中的数据都修改成新数据，是一致的。&lt;br&gt;&lt;br&gt;问题2和我们的期望不符，针对两种场景修正这种错误：&lt;br&gt;在全量修改场景下，用户A下发最新数据即可，用户B在处理时无需考虑幂等性；&lt;br&gt;在增量修改场景下，用户A保存数据变化量并生成单号，并支持重新下发增量数据，用户B在处理时需要支持幂等性；" style="text;html=1;strokeColor=none;fillColor=none;align=left;verticalAlign=top;whiteSpace=wrap;rounded=0;" vertex="1" parent="1">
          <mxGeometry x="10" y="390" width="630" height="150" as="geometry" />
        </mxCell>
        <mxCell id="bOPhfKpZzqqKe66vDT6X-48" value="" style="shape=umlLifeline;perimeter=lifelinePerimeter;whiteSpace=wrap;html=1;container=1;dropTarget=0;collapsible=0;recursiveResize=0;outlineConnect=0;portConstraint=eastwest;newEdgeStyle={&quot;curved&quot;:0,&quot;rounded&quot;:0};participant=umlActor;" vertex="1" parent="1">
          <mxGeometry x="100" y="60" width="20" height="300" as="geometry" />
        </mxCell>
        <mxCell id="bOPhfKpZzqqKe66vDT6X-53" value="" style="html=1;points=[[0,0,0,0,5],[0,1,0,0,-5],[1,0,0,0,5],[1,1,0,0,-5]];perimeter=orthogonalPerimeter;outlineConnect=0;targetShapes=umlLifeline;portConstraint=eastwest;newEdgeStyle={&quot;curved&quot;:0,&quot;rounded&quot;:0};" vertex="1" parent="bOPhfKpZzqqKe66vDT6X-48">
          <mxGeometry x="5" y="80" width="10" height="180" as="geometry" />
        </mxCell>
        <mxCell id="bOPhfKpZzqqKe66vDT6X-49" value="" style="shape=umlLifeline;perimeter=lifelinePerimeter;whiteSpace=wrap;html=1;container=1;dropTarget=0;collapsible=0;recursiveResize=0;outlineConnect=0;portConstraint=eastwest;newEdgeStyle={&quot;curved&quot;:0,&quot;rounded&quot;:0};participant=umlActor;" vertex="1" parent="1">
          <mxGeometry x="350" y="60" width="25" height="300" as="geometry" />
        </mxCell>
        <mxCell id="bOPhfKpZzqqKe66vDT6X-50" value="" style="html=1;points=[[0,0,0,0,5],[0,1,0,0,-5],[1,0,0,0,5],[1,1,0,0,-5]];perimeter=orthogonalPerimeter;outlineConnect=0;targetShapes=umlLifeline;portConstraint=eastwest;newEdgeStyle={&quot;curved&quot;:0,&quot;rounded&quot;:0};" vertex="1" parent="bOPhfKpZzqqKe66vDT6X-49">
          <mxGeometry x="5" y="95" width="10" height="95" as="geometry" />
        </mxCell>
        <mxCell id="bOPhfKpZzqqKe66vDT6X-54" value="" style="html=1;points=[[0,0,0,0,5],[0,1,0,0,-5],[1,0,0,0,5],[1,1,0,0,-5]];perimeter=orthogonalPerimeter;outlineConnect=0;targetShapes=umlLifeline;portConstraint=eastwest;newEdgeStyle={&quot;curved&quot;:0,&quot;rounded&quot;:0};" vertex="1" parent="bOPhfKpZzqqKe66vDT6X-49">
          <mxGeometry x="12.5" y="130" width="10" height="40" as="geometry" />
        </mxCell>
        <mxCell id="bOPhfKpZzqqKe66vDT6X-55" value="modify" style="html=1;align=left;spacingLeft=2;endArrow=block;rounded=0;edgeStyle=orthogonalEdgeStyle;curved=0;rounded=0;" edge="1" target="bOPhfKpZzqqKe66vDT6X-54" parent="bOPhfKpZzqqKe66vDT6X-49">
          <mxGeometry relative="1" as="geometry">
            <mxPoint x="18" y="110" as="sourcePoint" />
            <Array as="points">
              <mxPoint x="50" y="140" />
            </Array>
          </mxGeometry>
        </mxCell>
        <mxCell id="bOPhfKpZzqqKe66vDT6X-51" value="send modifiy data request" style="html=1;verticalAlign=bottom;endArrow=block;curved=0;rounded=0;entryX=0;entryY=0;entryDx=0;entryDy=5;" edge="1" target="bOPhfKpZzqqKe66vDT6X-50" parent="1" source="bOPhfKpZzqqKe66vDT6X-53">
          <mxGeometry relative="1" as="geometry">
            <mxPoint x="120" y="160" as="sourcePoint" />
          </mxGeometry>
        </mxCell>
        <mxCell id="bOPhfKpZzqqKe66vDT6X-52" value="return" style="html=1;verticalAlign=bottom;endArrow=open;dashed=1;endSize=8;curved=0;rounded=0;exitX=0;exitY=1;exitDx=0;exitDy=-5;" edge="1" source="bOPhfKpZzqqKe66vDT6X-50" parent="1" target="bOPhfKpZzqqKe66vDT6X-53">
          <mxGeometry relative="1" as="geometry">
            <mxPoint x="170" y="395" as="targetPoint" />
          </mxGeometry>
        </mxCell>
        <mxCell id="bOPhfKpZzqqKe66vDT6X-57" value="" style="html=1;points=[[0,0,0,0,5],[0,1,0,0,-5],[1,0,0,0,5],[1,1,0,0,-5]];perimeter=orthogonalPerimeter;outlineConnect=0;targetShapes=umlLifeline;portConstraint=eastwest;newEdgeStyle={&quot;curved&quot;:0,&quot;rounded&quot;:0};" vertex="1" parent="1">
          <mxGeometry x="111" y="276" width="10" height="34" as="geometry" />
        </mxCell>
        <mxCell id="bOPhfKpZzqqKe66vDT6X-58" value="modify" style="html=1;align=left;spacingLeft=2;endArrow=block;rounded=0;edgeStyle=orthogonalEdgeStyle;curved=0;rounded=0;" edge="1" target="bOPhfKpZzqqKe66vDT6X-57" parent="1">
          <mxGeometry relative="1" as="geometry">
            <mxPoint x="116" y="256" as="sourcePoint" />
            <Array as="points">
              <mxPoint x="146" y="286" />
            </Array>
          </mxGeometry>
        </mxCell>
        <mxCell id="bOPhfKpZzqqKe66vDT6X-59" value="A" style="text;html=1;strokeColor=none;fillColor=none;align=center;verticalAlign=middle;whiteSpace=wrap;rounded=0;" vertex="1" parent="1">
          <mxGeometry x="80" y="40" width="60" height="20" as="geometry" />
        </mxCell>
        <mxCell id="bOPhfKpZzqqKe66vDT6X-60" value="B" style="text;html=1;strokeColor=none;fillColor=none;align=center;verticalAlign=middle;whiteSpace=wrap;rounded=0;" vertex="1" parent="1">
          <mxGeometry x="332.5" y="40" width="60" height="20" as="geometry" />
        </mxCell>
        <mxCell id="bOPhfKpZzqqKe66vDT6X-61" value="" style="shape=umlLifeline;perimeter=lifelinePerimeter;whiteSpace=wrap;html=1;container=1;dropTarget=0;collapsible=0;recursiveResize=0;outlineConnect=0;portConstraint=eastwest;newEdgeStyle={&quot;curved&quot;:0,&quot;rounded&quot;:0};participant=umlActor;" vertex="1" parent="1">
          <mxGeometry x="740" y="50" width="20" height="300" as="geometry" />
        </mxCell>
        <mxCell id="bOPhfKpZzqqKe66vDT6X-62" value="" style="html=1;points=[[0,0,0,0,5],[0,1,0,0,-5],[1,0,0,0,5],[1,1,0,0,-5]];perimeter=orthogonalPerimeter;outlineConnect=0;targetShapes=umlLifeline;portConstraint=eastwest;newEdgeStyle={&quot;curved&quot;:0,&quot;rounded&quot;:0};" vertex="1" parent="bOPhfKpZzqqKe66vDT6X-61">
          <mxGeometry x="5" y="80" width="10" height="180" as="geometry" />
        </mxCell>
        <mxCell id="bOPhfKpZzqqKe66vDT6X-63" value="" style="shape=umlLifeline;perimeter=lifelinePerimeter;whiteSpace=wrap;html=1;container=1;dropTarget=0;collapsible=0;recursiveResize=0;outlineConnect=0;portConstraint=eastwest;newEdgeStyle={&quot;curved&quot;:0,&quot;rounded&quot;:0};participant=umlActor;" vertex="1" parent="1">
          <mxGeometry x="990" y="50" width="25" height="300" as="geometry" />
        </mxCell>
        <mxCell id="bOPhfKpZzqqKe66vDT6X-64" value="" style="html=1;points=[[0,0,0,0,5],[0,1,0,0,-5],[1,0,0,0,5],[1,1,0,0,-5]];perimeter=orthogonalPerimeter;outlineConnect=0;targetShapes=umlLifeline;portConstraint=eastwest;newEdgeStyle={&quot;curved&quot;:0,&quot;rounded&quot;:0};" vertex="1" parent="bOPhfKpZzqqKe66vDT6X-63">
          <mxGeometry x="10" y="150" width="10" height="95" as="geometry" />
        </mxCell>
        <mxCell id="bOPhfKpZzqqKe66vDT6X-65" value="" style="html=1;points=[[0,0,0,0,5],[0,1,0,0,-5],[1,0,0,0,5],[1,1,0,0,-5]];perimeter=orthogonalPerimeter;outlineConnect=0;targetShapes=umlLifeline;portConstraint=eastwest;newEdgeStyle={&quot;curved&quot;:0,&quot;rounded&quot;:0};" vertex="1" parent="bOPhfKpZzqqKe66vDT6X-63">
          <mxGeometry x="17.5" y="185" width="10" height="40" as="geometry" />
        </mxCell>
        <mxCell id="bOPhfKpZzqqKe66vDT6X-66" value="modify" style="html=1;align=left;spacingLeft=2;endArrow=block;rounded=0;edgeStyle=orthogonalEdgeStyle;curved=0;rounded=0;" edge="1" parent="bOPhfKpZzqqKe66vDT6X-63" target="bOPhfKpZzqqKe66vDT6X-65">
          <mxGeometry relative="1" as="geometry">
            <mxPoint x="23" y="165" as="sourcePoint" />
            <Array as="points">
              <mxPoint x="55" y="195" />
            </Array>
          </mxGeometry>
        </mxCell>
        <mxCell id="bOPhfKpZzqqKe66vDT6X-67" value="send modifiy data request" style="html=1;verticalAlign=bottom;endArrow=block;curved=0;rounded=0;entryX=0;entryY=0;entryDx=0;entryDy=5;" edge="1" source="bOPhfKpZzqqKe66vDT6X-62" target="bOPhfKpZzqqKe66vDT6X-64" parent="1">
          <mxGeometry relative="1" as="geometry">
            <mxPoint x="760" y="205" as="sourcePoint" />
          </mxGeometry>
        </mxCell>
        <mxCell id="bOPhfKpZzqqKe66vDT6X-68" value="return" style="html=1;verticalAlign=bottom;endArrow=open;dashed=1;endSize=8;curved=0;rounded=0;exitX=0;exitY=1;exitDx=0;exitDy=-5;" edge="1" source="bOPhfKpZzqqKe66vDT6X-64" parent="1">
          <mxGeometry relative="1" as="geometry">
            <mxPoint x="760" y="290" as="targetPoint" />
          </mxGeometry>
        </mxCell>
        <mxCell id="bOPhfKpZzqqKe66vDT6X-69" value="" style="html=1;points=[[0,0,0,0,5],[0,1,0,0,-5],[1,0,0,0,5],[1,1,0,0,-5]];perimeter=orthogonalPerimeter;outlineConnect=0;targetShapes=umlLifeline;portConstraint=eastwest;newEdgeStyle={&quot;curved&quot;:0,&quot;rounded&quot;:0};" vertex="1" parent="1">
          <mxGeometry x="750" y="159" width="10" height="34" as="geometry" />
        </mxCell>
        <mxCell id="bOPhfKpZzqqKe66vDT6X-70" value="modify" style="html=1;align=left;spacingLeft=2;endArrow=block;rounded=0;edgeStyle=orthogonalEdgeStyle;curved=0;rounded=0;" edge="1" target="bOPhfKpZzqqKe66vDT6X-69" parent="1">
          <mxGeometry relative="1" as="geometry">
            <mxPoint x="755" y="139" as="sourcePoint" />
            <Array as="points">
              <mxPoint x="785" y="139" />
              <mxPoint x="785" y="169" />
            </Array>
          </mxGeometry>
        </mxCell>
        <mxCell id="bOPhfKpZzqqKe66vDT6X-71" value="A" style="text;html=1;strokeColor=none;fillColor=none;align=center;verticalAlign=middle;whiteSpace=wrap;rounded=0;" vertex="1" parent="1">
          <mxGeometry x="720" y="30" width="60" height="20" as="geometry" />
        </mxCell>
        <mxCell id="bOPhfKpZzqqKe66vDT6X-72" value="B" style="text;html=1;strokeColor=none;fillColor=none;align=center;verticalAlign=middle;whiteSpace=wrap;rounded=0;" vertex="1" parent="1">
          <mxGeometry x="972.5" y="30" width="60" height="20" as="geometry" />
        </mxCell>
      </root>
    </mxGraphModel>
  </diagram>
</mxfile>
